<?xml version="1.0" encoding="utf-8"?>
<!-- Generator: Adobe Illustrator 18.0.0, SVG Export Plug-In . SVG Version: 6.00 Build 0)  -->
<!DOCTYPE svg PUBLIC "-//W3C//DTD SVG 1.1//EN" "http://www.w3.org/Graphics/SVG/1.1/DTD/svg11.dtd">
<svg version="1.1" id="Layer_1" xmlns="http://www.w3.org/2000/svg" xmlns:xlink="http://www.w3.org/1999/xlink" x="0px" y="0px"
	 width="841.9px" height="595.3px" viewBox="0 0 841.9 595.3" enable-background="new 0 0 841.9 595.3" xml:space="preserve">
<g>
	<linearGradient id="SVGID_1_" gradientUnits="userSpaceOnUse" x1="420.945" y1="594.5955" x2="420.945" y2="0.6239">
		<stop  offset="0" style="stop-color:#71C6CD"/>
		<stop  offset="0.1316" style="stop-color:#6DC0C9"/>
		<stop  offset="0.3144" style="stop-color:#63B1BF"/>
		<stop  offset="0.5271" style="stop-color:#529BB0"/>
		<stop  offset="0.7625" style="stop-color:#3B7F9D"/>
		<stop  offset="1" style="stop-color:#1D628A"/>
	</linearGradient>
	<rect x="0" fill="url(#SVGID_1_)" width="841.9" height="595.3"/>
	<g opacity="0.3">
		<path fill="#71C6CD" d="M842.4,43.9c0,0-123.3,26.1-157,39.1s23,4.7,26.7,11c3.8,6.3-73.6,18.2-111.2,24.8s-23.8,12.9-32.3,18.8
			c-8.5,5.9-52.2,10.1-60.3,15.9c-8.1,5.8-17.9,22.4-44.1,32.2c-26.1,9.8-105.2,38.5-105.2,38.5s354.1-69.1,366.9-80.2
			c12.8-11.1,2.7-11.8,23-19.4c20.3-7.5,93.5-23,93.5-23V43.9z"/>
		<path fill="#71C6CD" d="M-0.5,168.6c0,0,106.6-14.7,140.5-12.1c33.8,2.7,11.9,7.8,17.2,15.6c5.3,7.8,104.3-14.6,119.4-12.3
			c15,2.4,25.3,11.8,34,12.8c8.6,1,58.3-4,58.3-4s-255.2,42.5-274,42c-18.8-0.4-14.2-8.8-25.9-10.5C57.3,198.5-0.5,210-0.5,210
			V168.6z"/>
	</g>
	<circle fill="#FCF1C0" cx="246.9" cy="342.1" r="78.5"/>
	<g>
		<linearGradient id="SVGID_3_" gradientUnits="userSpaceOnUse" x1="515.3108" y1="633.5935" x2="515.3108" y2="230.1104">
			<stop  offset="0" style="stop-color:#71C6CD"/>
			<stop  offset="0.1316" style="stop-color:#6DC0C9"/>
			<stop  offset="0.3144" style="stop-color:#63B1BF"/>
			<stop  offset="0.5271" style="stop-color:#529BB0"/>
			<stop  offset="0.7625" style="stop-color:#3B7F9D"/>
			<stop  offset="1" style="stop-color:#1D628A"/>
		</linearGradient>
		<path fill="url(#SVGID_3_)" d="M188.3,497.6v-94.7c0,0,45.1-23.2,94-73.3l22.5,13.9c0,0,56.3-21.2,82.1-47.3l12.2,10.8
			c0,0,38.2-26.5,53.1-58.6l75.7,17.1l36.3-13.6l60.3,31c0,0,38.6-29.7,61.2-66.6l59.8,36c0,0,36-17.1,76.8-49.7l20,13.7V501
			L188.3,497.6z"/>
		<linearGradient id="SVGID_4_" gradientUnits="userSpaceOnUse" x1="387.9869" y1="344.4473" x2="451.6208" y2="229.9062">
			<stop  offset="0" style="stop-color:#1D628A"/>
			<stop  offset="0.1663" style="stop-color:#296C90;stop-opacity:0.8337"/>
			<stop  offset="0.4991" style="stop-color:#4488A4;stop-opacity:0.5009"/>
			<stop  offset="0.9639" style="stop-color:#6EC0C9;stop-opacity:3.609967e-002"/>
			<stop  offset="1" style="stop-color:#71C6CD;stop-opacity:0"/>
		</linearGradient>
		<path fill="url(#SVGID_4_)" d="M404.4,330.6l11.3,9c31.1-36,36.5-91.2,36.5-91.2c-15,32.1-53.1,58.6-53.1,58.6l-12.2-10.8
			c-12.8,45.1-36.3,76.6-36.3,76.6C369,361,404.4,330.6,404.4,330.6z"/>
		<linearGradient id="SVGID_5_" gradientUnits="userSpaceOnUse" x1="706.9669" y1="303.2102" x2="786.5094" y2="160.0337">
			<stop  offset="0" style="stop-color:#1D628A"/>
			<stop  offset="0.1663" style="stop-color:#296C90;stop-opacity:0.8337"/>
			<stop  offset="0.4991" style="stop-color:#4488A4;stop-opacity:0.5009"/>
			<stop  offset="0.9639" style="stop-color:#6EC0C9;stop-opacity:3.609967e-002"/>
			<stop  offset="1" style="stop-color:#71C6CD;stop-opacity:0"/>
		</linearGradient>
		<path fill="url(#SVGID_5_)" d="M683.9,351.8c23.3-16.3,47.2-43.9,47.2-43.9l6.9,13.6c24.9-19.5,43.5-47.2,43.5-47.2H792
			c21.8-33.7,30.3-71.8,30.3-71.8c-40.8,32.6-76.8,49.7-76.8,49.7l-59.8-36C704.8,282,683.9,351.8,683.9,351.8z"/>
		<linearGradient id="SVGID_6_" gradientUnits="userSpaceOnUse" x1="558.4356" y1="332.1132" x2="599.9232" y2="257.4356">
			<stop  offset="0" style="stop-color:#1D628A"/>
			<stop  offset="0.1663" style="stop-color:#296C90;stop-opacity:0.8337"/>
			<stop  offset="0.4991" style="stop-color:#4488A4;stop-opacity:0.5009"/>
			<stop  offset="0.9639" style="stop-color:#6EC0C9;stop-opacity:3.609967e-002"/>
			<stop  offset="1" style="stop-color:#71C6CD;stop-opacity:0"/>
		</linearGradient>
		<path fill="url(#SVGID_6_)" d="M564.2,251.9c0,0-7.1,34.2-17.6,58.7h19.8c0,0-8.6,29.1-19.8,47c0,0,50.7-27.9,77.9-74.7
			L564.2,251.9z"/>
		<linearGradient id="SVGID_7_" gradientUnits="userSpaceOnUse" x1="283.7619" y1="354.3923" x2="303.5105" y2="318.8448">
			<stop  offset="0" style="stop-color:#1D628A"/>
			<stop  offset="0.1663" style="stop-color:#296C90;stop-opacity:0.8337"/>
			<stop  offset="0.4991" style="stop-color:#4488A4;stop-opacity:0.5009"/>
			<stop  offset="0.9639" style="stop-color:#6EC0C9;stop-opacity:3.609967e-002"/>
			<stop  offset="1" style="stop-color:#71C6CD;stop-opacity:0"/>
		</linearGradient>
		<path fill="url(#SVGID_7_)" d="M282.3,329.5c0,0-5.5,37.9-9.3,51c0,0,23.9-18.2,31.8-37L282.3,329.5z"/>
	</g>
	<g>
		<defs>
			<rect id="SVGID_10_" x="0" width="841.9" height="595.3"/>
		</defs>
		<clipPath id="SVGID_8_">
			<use xlink:href="#SVGID_10_"  overflow="visible"/>
		</clipPath>
		<g clip-path="url(#SVGID_8_)">
			<g>
				<g>
					<g>
						<g>
							<g>
								<g>
									<path fill="#1B4E6E" d="M712.6,475.8c0,0-0.5,15.1,2.7,31.8c0,0-7.3,2.9-12.4,0c0,0,4.6-15.8,5.7-34.3L712.6,475.8z"/>
								</g>
								<g>
									<path fill="#1B4E6E" d="M694.6,429.8c-4.1,10.7-15.8,33.6-15.8,33.6c2.9-0.5,5.6-1.7,5.6-1.7c-3.9,7.3-13.6,20.6-13.6,20.6
										c6.8-0.7,18.7-4.1,18.7-4.1l-4.1,7.3c0,0,12.5-4.6,23.2-4.6c10.7,0,23.2,3.4,23.2,3.4l-3.9-5.8c9.6,1.9,18.5,5.8,18.5,5.8
										c-3.9-11.4-11.4-26.2-11.4-26.2l5.8,2.7c-9.2-17-12.6-35.5-12.6-35.5l3.9,1.5c-6.8-12.1-10.2-27.9-10.2-27.9l3.4,1.7
										c-10-17.5-13.2-33.2-13.2-33.2c-2.9,14.2-14,34.2-14,34.2c2.9-0.2,4.9-1,4.9-1s-5.1,17.5-12.8,31
										C690.1,431.5,691.5,431.5,694.6,429.8z"/>
								</g>
							</g>
							<g>
								<g>
									<path fill="#1B4E6E" d="M804.3,478.4c0,0-0.4,13.9,2.5,29.3c0,0-6.7,2.7-11.4,0c0,0,4.3-14.6,5.3-31.6L804.3,478.4z"/>
								</g>
								<g>
									<path fill="#1B4E6E" d="M787.7,436c-3.8,9.8-14.5,31-14.5,31c2.7-0.4,5.1-1.6,5.1-1.6c-3.6,6.7-12.5,19-12.5,19
										c6.3-0.7,17.2-3.8,17.2-3.8l-3.8,6.7c0,0,11.5-4.3,21.4-4.3c9.8,0,21.4,3.1,21.4,3.1l-3.6-5.4c8.8,1.8,17,5.4,17,5.4
										c-3.6-10.5-10.5-24.2-10.5-24.2l5.4,2.5c-8.5-15.7-11.6-32.7-11.6-32.7l3.6,1.3c-6.3-11.2-9.4-25.7-9.4-25.7l3.1,1.6
										c-9.2-16.1-12.2-30.6-12.2-30.6c-2.6,13-12.9,31.5-12.9,31.5c2.7-0.2,4.5-0.9,4.5-0.9s-4.7,16.1-11.7,28.5
										C783.6,437.6,784.8,437.6,787.7,436z"/>
								</g>
							</g>
							<g>
								<g>
									<path fill="#1B4E6E" d="M749.8,480.6c0,0-0.4,12.9,2.3,27.3c0,0-6.2,2.5-10.6,0c0,0,4-13.6,4.9-29.4L749.8,480.6z"/>
								</g>
								<g>
									<path fill="#1B4E6E" d="M734.4,441.1c-3.5,9.2-13.5,28.8-13.5,28.8c2.5-0.4,4.8-1.5,4.8-1.5c-3.3,6.2-11.7,17.7-11.7,17.7
										c5.8-0.6,16-3.5,16-3.5l-3.5,6.2c0,0,10.7-4,19.9-4c9.2,0,19.9,2.9,19.9,2.9l-3.3-5c8.2,1.7,15.8,5,15.8,5
										c-3.3-9.8-9.8-22.5-9.8-22.5l5,2.3c-7.9-14.6-10.8-30.4-10.8-30.4l3.3,1.2c-5.8-10.4-8.7-24-8.7-24l2.9,1.5
										c-8.5-15-11.4-28.5-11.4-28.5c-2.4,12.1-12,29.3-12,29.3c2.5-0.2,4.2-0.8,4.2-0.8s-4.4,15-10.9,26.6
										C730.5,442.5,731.7,442.5,734.4,441.1z"/>
								</g>
							</g>
							<g>
								<g>
									<path fill="#1B4E6E" d="M665.6,484.2c0,0-0.4,11.2,2,23.7c0,0-5.4,2.2-9.2,0c0,0,3.4-11.8,4.3-25.6L665.6,484.2z"/>
								</g>
								<g>
									<path fill="#1B4E6E" d="M652.1,449.9c-3.1,8-11.8,25.1-11.8,25.1c2.2-0.4,4.2-1.3,4.2-1.3c-2.9,5.4-10.2,15.4-10.2,15.4
										c5.1-0.5,14-3.1,14-3.1l-3.1,5.4c0,0,9.3-3.4,17.3-3.4c8,0,17.3,2.5,17.3,2.5l-2.9-4.4c7.1,1.4,13.8,4.4,13.8,4.4
										c-2.9-8.5-8.5-19.6-8.5-19.6l4.4,2c-6.9-12.7-9.4-26.5-9.4-26.5l2.9,1.1c-5.1-9.1-7.6-20.8-7.6-20.8l2.5,1.3
										c-7.4-13.1-9.9-24.8-9.9-24.8c-2.1,10.6-10.4,25.5-10.4,25.5c2.2-0.2,3.6-0.7,3.6-0.7s-3.8,13.1-9.5,23.1
										C648.8,451.2,649.8,451.2,652.1,449.9z"/>
								</g>
							</g>
							<g>
								<g>
									<path fill="#1B4E6E" d="M468.6,477.8c0,0-0.5,14.2,2.5,29.9c0,0-6.8,2.7-11.6,0c0,0,4.3-14.9,5.4-32.2L468.6,477.8z"/>
								</g>
								<g>
									<path fill="#1B4E6E" d="M451.7,434.6c-3.9,10-14.8,31.6-14.8,31.6c2.7-0.5,5.3-1.6,5.3-1.6c-3.7,6.8-12.8,19.4-12.8,19.4
										c6.4-0.7,17.6-3.9,17.6-3.9l-3.9,6.8c0,0,11.8-4.3,21.8-4.3c10,0,21.8,3.2,21.8,3.2l-3.7-5.5c9,1.8,17.3,5.5,17.3,5.5
										c-3.7-10.7-10.7-24.7-10.7-24.7l5.5,2.5c-8.7-16-11.9-33.3-11.9-33.3l3.7,1.4c-6.4-11.4-9.6-26.3-9.6-26.3l3.2,1.6
										c-9.4-16.4-12.4-31.2-12.4-31.2c-2.7,13.3-13.1,32.1-13.1,32.1c2.7-0.2,4.6-0.9,4.6-0.9s-4.8,16.4-12,29.1
										C447.5,436.2,448.8,436.2,451.7,434.6z"/>
								</g>
							</g>
							<g>
								<g>
									<path fill="#1B4E6E" d="M832.3,474.1c0,0-0.5,15.9,2.8,33.5c0,0-7.7,3.1-13.1,0c0,0,4.9-16.7,6-36.1L832.3,474.1z"/>
								</g>
								<g>
									<path fill="#1B4E6E" d="M813.4,425.6c-4.4,11.3-16.6,35.4-16.6,35.4c3.1-0.5,5.9-1.8,5.9-1.8c-4.1,7.7-14.3,21.8-14.3,21.8
										c7.2-0.8,19.7-4.4,19.7-4.4l-4.4,7.7c0,0,13.2-4.9,24.4-4.9s24.4,3.6,24.4,3.6l-4.1-6.1c10.1,2,19.4,6.1,19.4,6.1
										c-4.1-12-12-27.6-12-27.6l6.1,2.8c-9.7-17.9-13.3-37.4-13.3-37.4l4.1,1.5c-7.2-12.8-10.7-29.4-10.7-29.4l3.6,1.8
										c-10.5-18.4-13.9-35-13.9-35c-3,14.9-14.7,36-14.7,36c3.1-0.3,5.1-1,5.1-1s-5.4,18.4-13.4,32.6
										C808.7,427.4,810.1,427.4,813.4,425.6z"/>
								</g>
							</g>
							<g>
								<g>
									<path fill="#1B4E6E" d="M519.3,475.8c0,0-0.5,15.1,2.7,31.8c0,0-7.3,2.9-12.4,0c0,0,4.6-15.8,5.7-34.3L519.3,475.8z"/>
								</g>
								<g>
									<path fill="#1B4E6E" d="M501.3,429.8c-4.1,10.7-15.8,33.6-15.8,33.6c2.9-0.5,5.6-1.7,5.6-1.7c-3.9,7.3-13.6,20.6-13.6,20.6
										c6.8-0.7,18.7-4.1,18.7-4.1l-4.1,7.3c0,0,12.5-4.6,23.2-4.6c10.7,0,23.2,3.4,23.2,3.4l-3.9-5.8c9.6,1.9,18.5,5.8,18.5,5.8
										c-3.9-11.4-11.4-26.2-11.4-26.2l5.8,2.7c-9.2-17-12.6-35.5-12.6-35.5l3.9,1.5c-6.8-12.1-10.2-27.9-10.2-27.9l3.4,1.7
										c-10-17.5-13.2-33.2-13.2-33.2c-2.9,14.2-14,34.2-14,34.2c2.9-0.2,4.9-1,4.9-1s-5.1,17.5-12.8,31
										C496.8,431.5,498.2,431.5,501.3,429.8z"/>
								</g>
							</g>
							<g>
								<g>
									<path fill="#1B4E6E" d="M580.7,480.9c0,0-0.4,12.8,2.3,27c0,0-6.2,2.5-10.5,0c0,0,3.9-13.4,4.8-29.1L580.7,480.9z"/>
								</g>
								<g>
									<path fill="#1B4E6E" d="M565.5,441.8c-3.5,9.1-13.4,28.5-13.4,28.5c2.5-0.4,4.7-1.4,4.7-1.4c-3.3,6.2-11.5,17.5-11.5,17.5
										c5.8-0.6,15.9-3.5,15.9-3.5l-3.5,6.2c0,0,10.6-3.9,19.7-3.9c9.1,0,19.7,2.9,19.7,2.9l-3.3-4.9c8.1,1.6,15.7,4.9,15.7,4.9
										c-3.3-9.7-9.7-22.3-9.7-22.3l4.9,2.3c-7.8-14.4-10.7-30.1-10.7-30.1l3.3,1.2c-5.8-10.3-8.7-23.7-8.7-23.7l2.9,1.4
										c-8.5-14.8-11.2-28.2-11.2-28.2c-2.4,12-11.9,29-11.9,29c2.5-0.2,4.1-0.8,4.1-0.8s-4.3,14.8-10.8,26.3
										C561.7,443.2,562.8,443.2,565.5,441.8z"/>
								</g>
							</g>
							<g>
								<g>
									<path fill="#1B4E6E" d="M446.1,480.9c0,0-0.4,12.8,2.3,27c0,0-6.2,2.5-10.5,0c0,0,3.9-13.4,4.8-29.1L446.1,480.9z"/>
								</g>
								<g>
									<path fill="#1B4E6E" d="M430.8,441.8c-3.5,9.1-13.4,28.5-13.4,28.5c2.5-0.4,4.7-1.4,4.7-1.4c-3.3,6.2-11.5,17.5-11.5,17.5
										c5.8-0.6,15.9-3.5,15.9-3.5l-3.5,6.2c0,0,10.6-3.9,19.7-3.9c9.1,0,19.7,2.9,19.7,2.9l-3.3-4.9c8.1,1.6,15.7,4.9,15.7,4.9
										c-3.3-9.7-9.7-22.3-9.7-22.3l4.9,2.3c-7.8-14.4-10.7-30.1-10.7-30.1l3.3,1.2c-5.8-10.3-8.7-23.7-8.7-23.7l2.9,1.4
										c-8.5-14.8-11.2-28.2-11.2-28.2c-2.4,12-11.9,29-11.9,29c2.5-0.2,4.1-0.8,4.1-0.8s-4.3,14.8-10.8,26.3
										C427,443.2,428.2,443.2,430.8,441.8z"/>
								</g>
							</g>
							<g>
								<g>
									<path fill="#1B4E6E" d="M537,474.1c0,0-0.5,15.9,2.8,33.5c0,0-7.7,3.1-13.1,0c0,0,4.9-16.7,6-36.1L537,474.1z"/>
								</g>
								<g>
									<path fill="#1B4E6E" d="M518.1,425.6c-4.4,11.3-16.6,35.4-16.6,35.4c3.1-0.5,5.9-1.8,5.9-1.8C503.3,466.9,493,481,493,481
										c7.2-0.8,19.7-4.4,19.7-4.4l-4.4,7.7c0,0,13.2-4.9,24.4-4.9c11.3,0,24.4,3.6,24.4,3.6l-4.1-6.1c10.1,2,19.4,6.1,19.4,6.1
										c-4.1-12-12-27.6-12-27.6l6.1,2.8c-9.7-17.9-13.3-37.4-13.3-37.4l4.1,1.5c-7.2-12.8-10.7-29.4-10.7-29.4l3.6,1.8
										c-10.5-18.4-13.9-35-13.9-35c-3,14.9-14.7,36-14.7,36c3.1-0.3,5.1-1,5.1-1s-5.4,18.4-13.4,32.6
										C513.4,427.4,514.8,427.4,518.1,425.6z"/>
								</g>
							</g>
							<g>
								<g>
									<path fill="#1B4E6E" d="M638.9,475.2c0,0-0.5,15.4,2.7,32.4c0,0-7.4,3-12.6,0c0,0,4.7-16.2,5.8-34.9L638.9,475.2z"/>
								</g>
								<g>
									<path fill="#1B4E6E" d="M620.6,428.3c-4.2,10.9-16.1,34.3-16.1,34.3c3-0.5,5.7-1.7,5.7-1.7c-4,7.4-13.9,21-13.9,21
										c6.9-0.7,19.1-4.2,19.1-4.2l-4.2,7.4c0,0,12.8-4.7,23.6-4.7s23.6,3.5,23.6,3.5l-4-5.9c9.7,2,18.8,5.9,18.8,5.9
										c-4-11.6-11.6-26.7-11.6-26.7l5.9,2.7c-9.4-17.3-12.9-36.2-12.9-36.2l4,1.5c-6.9-12.4-10.4-28.5-10.4-28.5l3.5,1.7
										c-10.2-17.8-13.5-33.9-13.5-33.9c-2.9,14.4-14.2,34.9-14.2,34.9c3-0.2,5-1,5-1s-5.2,17.8-13,31.6
										C616,430,617.4,430,620.6,428.3z"/>
								</g>
							</g>
						</g>
					</g>
					<g>
						<g>
							<g>
								<g>
									<path fill="#1B4E6E" d="M275.9,475.8c0,0-0.5,15.1,2.7,31.8c0,0-7.3,2.9-12.4,0c0,0,4.6-15.8,5.7-34.3L275.9,475.8z"/>
								</g>
								<g>
									<path fill="#1B4E6E" d="M257.9,429.8c-4.1,10.7-15.8,33.6-15.8,33.6c2.9-0.5,5.6-1.7,5.6-1.7c-3.9,7.3-13.6,20.6-13.6,20.6
										c6.8-0.7,18.7-4.1,18.7-4.1l-4.1,7.3c0,0,12.5-4.6,23.2-4.6c10.7,0,23.2,3.4,23.2,3.4l-3.9-5.8c9.6,1.9,18.5,5.8,18.5,5.8
										c-3.9-11.4-11.4-26.2-11.4-26.2l5.8,2.7c-9.2-17-12.6-35.5-12.6-35.5l3.9,1.5c-6.8-12.1-10.2-27.9-10.2-27.9l3.4,1.7
										c-10-17.5-13.2-33.2-13.2-33.2c-2.9,14.2-14,34.2-14,34.2c2.9-0.2,4.9-1,4.9-1s-5.1,17.5-12.8,31
										C253.4,431.5,254.8,431.5,257.9,429.8z"/>
								</g>
							</g>
							<g>
								<g>
									<path fill="#1B4E6E" d="M367.6,478.4c0,0-0.4,13.9,2.5,29.3c0,0-6.7,2.7-11.4,0c0,0,4.3-14.6,5.3-31.6L367.6,478.4z"/>
								</g>
								<g>
									<path fill="#1B4E6E" d="M351,436c-3.8,9.8-14.5,31-14.5,31c2.7-0.4,5.1-1.6,5.1-1.6c-3.6,6.7-12.5,19-12.5,19
										c6.3-0.7,17.2-3.8,17.2-3.8l-3.8,6.7c0,0,11.5-4.3,21.4-4.3c9.8,0,21.4,3.1,21.4,3.1l-3.6-5.4c8.8,1.8,17,5.4,17,5.4
										c-3.6-10.5-10.5-24.2-10.5-24.2l5.4,2.5c-8.5-15.7-11.6-32.7-11.6-32.7l3.6,1.3c-6.3-11.2-9.4-25.7-9.4-25.7l3.1,1.6
										c-9.2-16.1-12.2-30.6-12.2-30.6c-2.6,13-12.9,31.5-12.9,31.5c2.7-0.2,4.5-0.9,4.5-0.9s-4.7,16.1-11.7,28.5
										C346.9,437.6,348.1,437.6,351,436z"/>
								</g>
							</g>
							<g>
								<g>
									<path fill="#1B4E6E" d="M313.1,480.6c0,0-0.4,12.9,2.3,27.3c0,0-6.2,2.5-10.6,0c0,0,4-13.6,4.9-29.4L313.1,480.6z"/>
								</g>
								<g>
									<path fill="#1B4E6E" d="M297.7,441.1c-3.5,9.2-13.5,28.8-13.5,28.8c2.5-0.4,4.8-1.5,4.8-1.5c-3.3,6.2-11.7,17.7-11.7,17.7
										c5.8-0.6,16-3.5,16-3.5l-3.5,6.2c0,0,10.7-4,19.9-4c9.2,0,19.9,2.9,19.9,2.9l-3.3-5c8.2,1.7,15.8,5,15.8,5
										c-3.3-9.8-9.8-22.5-9.8-22.5l5,2.3c-7.9-14.6-10.8-30.4-10.8-30.4l3.3,1.2c-5.8-10.4-8.7-24-8.7-24l2.9,1.5
										c-8.5-15-11.4-28.5-11.4-28.5c-2.4,12.1-12,29.3-12,29.3c2.5-0.2,4.2-0.8,4.2-0.8s-4.4,15-10.9,26.6
										C293.8,442.5,295,442.5,297.7,441.1z"/>
								</g>
							</g>
							<g>
								<g>
									<path fill="#1B4E6E" d="M228.9,484.2c0,0-0.4,11.2,2,23.7c0,0-5.4,2.2-9.2,0c0,0,3.4-11.8,4.3-25.6L228.9,484.2z"/>
								</g>
								<g>
									<path fill="#1B4E6E" d="M215.5,449.9c-3.1,8-11.8,25.1-11.8,25.1c2.2-0.4,4.2-1.3,4.2-1.3c-2.9,5.4-10.2,15.4-10.2,15.4
										c5.1-0.5,14-3.1,14-3.1l-3.1,5.4c0,0,9.3-3.4,17.3-3.4c8,0,17.3,2.5,17.3,2.5l-2.9-4.4c7.1,1.4,13.8,4.4,13.8,4.4
										c-2.9-8.5-8.5-19.6-8.5-19.6l4.4,2c-6.9-12.7-9.4-26.5-9.4-26.5l2.9,1.1c-5.1-9.1-7.6-20.8-7.6-20.8l2.5,1.3
										c-7.4-13.1-9.9-24.8-9.9-24.8c-2.1,10.6-10.4,25.5-10.4,25.5c2.2-0.2,3.6-0.7,3.6-0.7s-3.8,13.1-9.5,23.1
										C212.1,451.2,213.1,451.2,215.5,449.9z"/>
								</g>
							</g>
							<g>
								<g>
									<path fill="#1B4E6E" d="M32,477.8c0,0-0.5,14.2,2.5,29.9c0,0-6.8,2.7-11.6,0c0,0,4.3-14.9,5.4-32.2L32,477.8z"/>
								</g>
								<g>
									<path fill="#1B4E6E" d="M15.1,434.6c-3.9,10-14.8,31.6-14.8,31.6c2.7-0.5,5.3-1.6,5.3-1.6C1.8,471.4-7.3,484-7.3,484
										c6.4-0.7,17.6-3.9,17.6-3.9L6.4,487c0,0,11.8-4.3,21.8-4.3c10,0,21.8,3.2,21.8,3.2l-3.7-5.5c9,1.8,17.3,5.5,17.3,5.5
										C60,475.1,53,461.2,53,461.2l5.5,2.5c-8.7-16-11.9-33.3-11.9-33.3l3.7,1.4c-6.4-11.4-9.6-26.3-9.6-26.3l3.2,1.6
										c-9.4-16.4-12.4-31.2-12.4-31.2C28.7,389.2,18.3,408,18.3,408c2.7-0.2,4.6-0.9,4.6-0.9s-4.8,16.4-12,29.1
										C10.9,436.2,12.1,436.2,15.1,434.6z"/>
								</g>
							</g>
							<g>
								<g>
									<path fill="#1B4E6E" d="M395.7,474.1c0,0-0.5,15.9,2.8,33.5c0,0-7.7,3.1-13.1,0c0,0,4.9-16.7,6-36.1L395.7,474.1z"/>
								</g>
								<g>
									<path fill="#1B4E6E" d="M376.7,425.6c-4.4,11.3-16.6,35.4-16.6,35.4c3.1-0.5,5.9-1.8,5.9-1.8c-4.1,7.7-14.3,21.8-14.3,21.8
										c7.2-0.8,19.7-4.4,19.7-4.4l-4.4,7.7c0,0,13.2-4.9,24.4-4.9c11.3,0,24.4,3.6,24.4,3.6l-4.1-6.1c10.1,2,19.4,6.1,19.4,6.1
										c-4.1-12-12-27.6-12-27.6l6.1,2.8c-9.7-17.9-13.3-37.4-13.3-37.4l4.1,1.5c-7.2-12.8-10.7-29.4-10.7-29.4l3.6,1.8
										c-10.5-18.4-13.9-35-13.9-35c-3,14.9-14.7,36-14.7,36c3.1-0.3,5.1-1,5.1-1s-5.4,18.4-13.4,32.6
										C372,427.4,373.4,427.4,376.7,425.6z"/>
								</g>
							</g>
							<g>
								<g>
									<path fill="#1B4E6E" d="M82.6,475.8c0,0-0.5,15.1,2.7,31.8c0,0-7.3,2.9-12.4,0c0,0,4.6-15.8,5.7-34.3L82.6,475.8z"/>
								</g>
								<g>
									<path fill="#1B4E6E" d="M64.7,429.8c-4.1,10.7-15.8,33.6-15.8,33.6c2.9-0.5,5.6-1.7,5.6-1.7c-3.9,7.3-13.6,20.6-13.6,20.6
										c6.8-0.7,18.7-4.1,18.7-4.1l-4.1,7.3c0,0,12.5-4.6,23.2-4.6c10.7,0,23.2,3.4,23.2,3.4l-3.9-5.8c9.6,1.9,18.5,5.8,18.5,5.8
										c-3.9-11.4-11.4-26.2-11.4-26.2l5.8,2.7c-9.2-17-12.6-35.5-12.6-35.5l3.9,1.5c-6.8-12.1-10.2-27.9-10.2-27.9l3.4,1.7
										c-10-17.5-13.2-33.2-13.2-33.2c-2.9,14.2-14,34.2-14,34.2c2.9-0.2,4.9-1,4.9-1s-5.1,17.5-12.8,31
										C60.2,431.5,61.5,431.5,64.7,429.8z"/>
								</g>
							</g>
							<g>
								<g>
									<path fill="#1B4E6E" d="M144.1,480.9c0,0-0.4,12.8,2.3,27c0,0-6.2,2.5-10.5,0c0,0,3.9-13.4,4.8-29.1L144.1,480.9z"/>
								</g>
								<g>
									<path fill="#1B4E6E" d="M128.8,441.8c-3.5,9.1-13.4,28.5-13.4,28.5c2.5-0.4,4.7-1.4,4.7-1.4c-3.3,6.2-11.5,17.5-11.5,17.5
										c5.8-0.6,15.9-3.5,15.9-3.5l-3.5,6.2c0,0,10.6-3.9,19.7-3.9c9.1,0,19.7,2.9,19.7,2.9l-3.3-4.9c8.1,1.6,15.7,4.9,15.7,4.9
										c-3.3-9.7-9.7-22.3-9.7-22.3l4.9,2.3c-7.8-14.4-10.7-30.1-10.7-30.1l3.3,1.2c-5.8-10.3-8.7-23.7-8.7-23.7l2.9,1.4
										c-8.5-14.8-11.2-28.2-11.2-28.2c-2.4,12-11.9,29-11.9,29c2.5-0.2,4.1-0.8,4.1-0.8s-4.3,14.8-10.8,26.3
										C125,443.2,126.1,443.2,128.8,441.8z"/>
								</g>
							</g>
							<g>
								<g>
									<path fill="#1B4E6E" d="M9.4,480.9c0,0-0.4,12.8,2.3,27c0,0-6.2,2.5-10.5,0c0,0,3.9-13.4,4.8-29.1L9.4,480.9z"/>
								</g>
								<g>
									<path fill="#1B4E6E" d="M-5.8,441.8c-3.5,9.1-13.4,28.5-13.4,28.5c2.5-0.4,4.7-1.4,4.7-1.4c-3.3,6.2-11.5,17.5-11.5,17.5
										c5.8-0.6,15.9-3.5,15.9-3.5l-3.5,6.2c0,0,10.6-3.9,19.7-3.9s19.7,2.9,19.7,2.9l-3.3-4.9c8.1,1.6,15.7,4.9,15.7,4.9
										c-3.3-9.7-9.7-22.3-9.7-22.3l4.9,2.3C25.5,453.7,22.6,438,22.6,438l3.3,1.2c-5.8-10.3-8.7-23.7-8.7-23.7l2.9,1.4
										c-8.5-14.8-11.2-28.2-11.2-28.2c-2.4,12-11.9,29-11.9,29c2.5-0.2,4.1-0.8,4.1-0.8s-4.3,14.8-10.8,26.3
										C-9.6,443.2-8.5,443.2-5.8,441.8z"/>
								</g>
							</g>
							<g>
								<g>
									<path fill="#1B4E6E" d="M100.4,474.1c0,0-0.5,15.9,2.8,33.5c0,0-7.7,3.1-13.1,0c0,0,4.9-16.7,6-36.1L100.4,474.1z"/>
								</g>
								<g>
									<path fill="#1B4E6E" d="M81.4,425.6C77.1,436.8,64.8,461,64.8,461c3.1-0.5,5.9-1.8,5.9-1.8c-4.1,7.7-14.3,21.8-14.3,21.8
										c7.2-0.8,19.7-4.4,19.7-4.4l-4.4,7.7c0,0,13.2-4.9,24.4-4.9c11.3,0,24.4,3.6,24.4,3.6l-4.1-6.1c10.1,2,19.4,6.1,19.4,6.1
										c-4.1-12-12-27.6-12-27.6l6.1,2.8c-9.7-17.9-13.3-37.4-13.3-37.4l4.1,1.5c-7.2-12.8-10.7-29.4-10.7-29.4l3.6,1.8
										c-10.5-18.4-13.9-35-13.9-35c-3,14.9-14.7,36-14.7,36c3.1-0.3,5.1-1,5.1-1s-5.4,18.4-13.4,32.6
										C76.7,427.4,78.1,427.4,81.4,425.6z"/>
								</g>
							</g>
							<g>
								<g>
									<path fill="#1B4E6E" d="M202.2,475.2c0,0-0.5,15.4,2.7,32.4c0,0-7.4,3-12.6,0c0,0,4.7-16.2,5.8-34.9L202.2,475.2z"/>
								</g>
								<g>
									<path fill="#1B4E6E" d="M183.9,428.3c-4.2,10.9-16.1,34.3-16.1,34.3c3-0.5,5.7-1.7,5.7-1.7c-4,7.4-13.9,21-13.9,21
										c6.9-0.7,19.1-4.2,19.1-4.2l-4.2,7.4c0,0,12.8-4.7,23.6-4.7c10.9,0,23.6,3.5,23.6,3.5l-4-5.9c9.7,2,18.8,5.9,18.8,5.9
										c-4-11.6-11.6-26.7-11.6-26.7l5.9,2.7c-9.4-17.3-12.9-36.2-12.9-36.2l4,1.5c-6.9-12.4-10.4-28.5-10.4-28.5l3.5,1.7
										c-10.2-17.8-13.5-33.9-13.5-33.9c-2.9,14.4-14.2,34.9-14.2,34.9c3-0.2,5-1,5-1s-5.2,17.8-13,31.6
										C179.3,430,180.7,430,183.9,428.3z"/>
								</g>
							</g>
						</g>
					</g>
				</g>
			</g>
			<g>
				<g>
					<g>
						<g>
							<g>
								<g>
									<path fill="#0B364F" d="M140.3,496.6c0,0,0.5,14.5-2.6,30.6c0,0,7,2.8,11.9,0c0,0-4.4-15.2-5.5-33L140.3,496.6z"/>
								</g>
								<g>
									<path fill="#0B364F" d="M157.6,452.3c4,10.3,15.2,32.4,15.2,32.4c-2.8-0.5-5.4-1.6-5.4-1.6c3.7,7,13.1,19.9,13.1,19.9
										c-6.5-0.7-18-4-18-4l4,7c0,0-12-4.4-22.3-4.4c-10.3,0-22.3,3.3-22.3,3.3l3.7-5.6c-9.2,1.9-17.8,5.6-17.8,5.6
										c3.7-11,11-25.2,11-25.2l-5.6,2.6c8.9-16.4,12.2-34.1,12.2-34.1l-3.7,1.4c6.5-11.7,9.8-26.9,9.8-26.9l-3.3,1.6
										c9.6-16.8,12.7-32,12.7-32c2.7,13.6,13.4,32.9,13.4,32.9c-2.8-0.2-4.7-0.9-4.7-0.9s4.9,16.8,12.3,29.8
										C161.9,453.9,160.6,453.9,157.6,452.3z"/>
								</g>
							</g>
							<g>
								<g>
									<path fill="#0B364F" d="M52.1,499.1c0,0,0.4,13.4-2.4,28.2c0,0,6.5,2.6,11,0c0,0-4.1-14-5.1-30.4L52.1,499.1z"/>
								</g>
								<g>
									<path fill="#0B364F" d="M68,458.3c3.7,9.5,14,29.8,14,29.8c-2.6-0.4-5-1.5-5-1.5c3.4,6.5,12.1,18.3,12.1,18.3
										c-6-0.6-16.6-3.7-16.6-3.7l3.7,6.5c0,0-11.1-4.1-20.6-4.1c-9.5,0-20.6,3-20.6,3l3.4-5.2c-8.5,1.7-16.4,5.2-16.4,5.2
										c3.4-10.1,10.1-23.3,10.1-23.3l-5.2,2.4c8.2-15.1,11.2-31.4,11.2-31.4l-3.4,1.3c6-10.8,9-24.8,9-24.8l-3,1.5
										c8.8-15.5,11.7-29.5,11.7-29.5c2.5,12.5,12.4,30.3,12.4,30.3c-2.6-0.2-4.3-0.9-4.3-0.9s4.5,15.5,11.3,27.5
										C72,459.8,70.8,459.8,68,458.3z"/>
								</g>
							</g>
							<g>
								<g>
									<path fill="#0B364F" d="M104.5,501.1c0,0,0.4,12.4-2.2,26.3c0,0,6,2.4,10.2,0c0,0-3.8-13.1-4.7-28.3L104.5,501.1z"/>
								</g>
								<g>
									<path fill="#0B364F" d="M119.3,463.1c3.4,8.8,13,27.8,13,27.8c-2.4-0.4-4.6-1.4-4.6-1.4c3.2,6,11.2,17,11.2,17
										c-5.6-0.6-15.4-3.4-15.4-3.4l3.4,6c0,0-10.3-3.8-19.1-3.8c-8.8,0-19.1,2.8-19.1,2.8l3.2-4.8c-7.9,1.6-15.2,4.8-15.2,4.8
										c3.2-9.4,9.4-21.6,9.4-21.6l-4.8,2.2c7.6-14,10.4-29.3,10.4-29.3l-3.2,1.2c5.6-10,8.4-23,8.4-23l-2.8,1.4
										c8.2-14.4,10.9-27.4,10.9-27.4c2.4,11.7,11.5,28.2,11.5,28.2c-2.4-0.2-4-0.8-4-0.8s4.2,14.4,10.5,25.6
										C123.1,464.5,122,464.5,119.3,463.1z"/>
								</g>
							</g>
							<g>
								<g>
									<path fill="#0B364F" d="M185.6,504.7c0,0,0.3,10.8-1.9,22.9c0,0,5.2,2.1,8.9,0c0,0-3.3-11.4-4.1-24.6L185.6,504.7z"/>
								</g>
								<g>
									<path fill="#0B364F" d="M198.5,471.6c3,7.7,11.3,24.2,11.3,24.2c-2.1-0.3-4-1.2-4-1.2c2.8,5.2,9.8,14.8,9.8,14.8
										c-4.9-0.5-13.4-3-13.4-3l3,5.2c0,0-9-3.3-16.7-3.3c-7.7,0-16.7,2.4-16.7,2.4l2.8-4.2c-6.9,1.4-13.3,4.2-13.3,4.2
										c2.8-8.2,8.2-18.8,8.2-18.8l-4.2,1.9c6.6-12.2,9.1-25.5,9.1-25.5l-2.8,1c4.9-8.7,7.3-20.1,7.3-20.1l-2.4,1.2
										c7.2-12.6,9.5-23.9,9.5-23.9c2,10.2,10,24.6,10,24.6c-2.1-0.2-3.5-0.7-3.5-0.7s3.7,12.6,9.2,22.2
										C201.7,472.8,200.7,472.8,198.5,471.6z"/>
								</g>
							</g>
							<g>
								<g>
									<path fill="#0B364F" d="M375,498.5c0,0,0.4,13.6-2.4,28.8c0,0,6.6,2.6,11.2,0c0,0-4.2-14.3-5.2-31L375,498.5z"/>
								</g>
								<g>
									<path fill="#0B364F" d="M391.3,456.9c3.7,9.7,14.3,30.4,14.3,30.4c-2.6-0.4-5.1-1.5-5.1-1.5c3.5,6.6,12.3,18.7,12.3,18.7
										c-6.2-0.7-16.9-3.7-16.9-3.7l3.7,6.6c0,0-11.3-4.2-21-4.2c-9.7,0-21,3.1-21,3.1l3.5-5.3c-8.6,1.7-16.7,5.3-16.7,5.3
										c3.5-10.3,10.3-23.7,10.3-23.7l-5.3,2.4c8.3-15.4,11.4-32.1,11.4-32.1l-3.5,1.3c6.2-11,9.2-25.3,9.2-25.3l-3.1,1.5
										c9-15.8,12-30,12-30c2.6,12.8,12.6,30.9,12.6,30.9c-2.6-0.2-4.4-0.9-4.4-0.9s4.6,15.8,11.5,28
										C395.4,458.4,394.2,458.4,391.3,456.9z"/>
								</g>
							</g>
							<g>
								<g>
									<path fill="#0B364F" d="M25.1,494.9c0,0,0.5,15.3-2.7,32.3c0,0,7.4,3,12.6,0c0,0-4.7-16.1-5.8-34.8L25.1,494.9z"/>
								</g>
								<g>
									<path fill="#0B364F" d="M43.3,448.2c4.2,10.8,16,34.1,16,34.1c-3-0.5-5.7-1.7-5.7-1.7c3.9,7.4,13.8,20.9,13.8,20.9
										c-6.9-0.7-19-4.2-19-4.2l4.2,7.4c0,0-12.7-4.7-23.5-4.7c-10.8,0-23.5,3.4-23.5,3.4l3.9-5.9c-9.7,2-18.7,5.9-18.7,5.9
										c3.9-11.6,11.6-26.6,11.6-26.6l-5.9,2.7c9.4-17.2,12.8-36,12.8-36l-3.9,1.5c6.9-12.3,10.3-28.3,10.3-28.3l-3.4,1.7
										c10.1-17.7,13.4-33.7,13.4-33.7c2.9,14.3,14.2,34.7,14.2,34.7c-3-0.2-4.9-1-4.9-1s5.2,17.7,12.9,31.4
										C47.9,449.9,46.5,449.9,43.3,448.2z"/>
								</g>
							</g>
							<g>
								<g>
									<path fill="#0B364F" d="M326.3,496.6c0,0,0.5,14.5-2.6,30.6c0,0,7,2.8,11.9,0c0,0-4.4-15.2-5.5-33L326.3,496.6z"/>
								</g>
								<g>
									<path fill="#0B364F" d="M343.6,452.3c4,10.3,15.2,32.4,15.2,32.4c-2.8-0.5-5.4-1.6-5.4-1.6c3.7,7,13.1,19.9,13.1,19.9
										c-6.5-0.7-18-4-18-4l4,7c0,0-12-4.4-22.3-4.4c-10.3,0-22.3,3.3-22.3,3.3l3.7-5.6c-9.2,1.9-17.8,5.6-17.8,5.6
										c3.7-11,11-25.2,11-25.2l-5.6,2.6c8.9-16.4,12.2-34.1,12.2-34.1l-3.7,1.4c6.5-11.7,9.8-26.9,9.8-26.9l-3.3,1.6
										c9.6-16.8,12.7-32,12.7-32c2.7,13.6,13.4,32.9,13.4,32.9c-2.8-0.2-4.7-0.9-4.7-0.9s4.9,16.8,12.3,29.8
										C347.9,453.9,346.6,453.9,343.6,452.3z"/>
								</g>
							</g>
							<g>
								<g>
									<path fill="#0B364F" d="M267.2,501.4c0,0,0.4,12.3-2.2,26c0,0,5.9,2.4,10.1,0c0,0-3.8-12.9-4.7-28L267.2,501.4z"/>
								</g>
								<g>
									<path fill="#0B364F" d="M281.9,463.8c3.4,8.7,12.9,27.5,12.9,27.5c-2.4-0.4-4.6-1.4-4.6-1.4c3.2,5.9,11.1,16.9,11.1,16.9
										c-5.6-0.6-15.3-3.4-15.3-3.4l3.4,5.9c0,0-10.2-3.8-18.9-3.8c-8.7,0-18.9,2.8-18.9,2.8l3.2-4.8c-7.8,1.6-15.1,4.8-15.1,4.8
										c3.2-9.3,9.3-21.4,9.3-21.4l-4.8,2.2c7.5-13.9,10.3-29,10.3-29l-3.2,1.2c5.6-9.9,8.3-22.8,8.3-22.8l-2.8,1.4
										c8.1-14.3,10.8-27.1,10.8-27.1c2.3,11.6,11.4,27.9,11.4,27.9c-2.4-0.2-4-0.8-4-0.8s4.2,14.3,10.4,25.3
										C285.5,465.2,284.4,465.2,281.9,463.8z"/>
								</g>
							</g>
							<g>
								<g>
									<path fill="#0B364F" d="M396.7,501.4c0,0,0.4,12.3-2.2,26c0,0,5.9,2.4,10.1,0c0,0-3.8-12.9-4.7-28L396.7,501.4z"/>
								</g>
								<g>
									<path fill="#0B364F" d="M411.4,463.8c3.4,8.7,12.9,27.5,12.9,27.5c-2.4-0.4-4.6-1.4-4.6-1.4c3.2,5.9,11.1,16.9,11.1,16.9
										c-5.6-0.6-15.3-3.4-15.3-3.4l3.4,5.9c0,0-10.2-3.8-18.9-3.8c-8.7,0-18.9,2.8-18.9,2.8l3.2-4.8c-7.8,1.6-15.1,4.8-15.1,4.8
										c3.2-9.3,9.3-21.4,9.3-21.4l-4.8,2.2c7.5-13.9,10.3-29,10.3-29l-3.2,1.2c5.6-9.9,8.3-22.8,8.3-22.8l-2.8,1.4
										c8.1-14.3,10.8-27.1,10.8-27.1c2.3,11.6,11.4,27.9,11.4,27.9c-2.4-0.2-4-0.8-4-0.8s4.2,14.3,10.4,25.3
										C415.1,465.2,414,465.2,411.4,463.8z"/>
								</g>
							</g>
							<g>
								<g>
									<path fill="#0B364F" d="M309.2,494.9c0,0,0.5,15.3-2.7,32.3c0,0,7.4,3,12.6,0c0,0-4.7-16.1-5.8-34.8L309.2,494.9z"/>
								</g>
								<g>
									<path fill="#0B364F" d="M327.5,448.2c4.2,10.8,16,34.1,16,34.1c-3-0.5-5.7-1.7-5.7-1.7c3.9,7.4,13.8,20.9,13.8,20.9
										c-6.9-0.7-19-4.2-19-4.2l4.2,7.4c0,0-12.7-4.7-23.5-4.7c-10.8,0-23.5,3.4-23.5,3.4l3.9-5.9c-9.7,2-18.7,5.9-18.7,5.9
										c3.9-11.6,11.6-26.6,11.6-26.6l-5.9,2.7c9.4-17.2,12.8-36,12.8-36l-3.9,1.5c6.9-12.3,10.3-28.3,10.3-28.3l-3.4,1.7
										c10.1-17.7,13.4-33.7,13.4-33.7c2.9,14.3,14.2,34.7,14.2,34.7c-3-0.2-4.9-1-4.9-1s5.2,17.7,12.9,31.4
										C332,449.9,330.7,449.9,327.5,448.2z"/>
								</g>
							</g>
							<g>
								<g>
									<path fill="#0B364F" d="M211.2,496c0,0,0.5,14.8-2.6,31.2c0,0,7.1,2.9,12.2,0c0,0-4.5-15.5-5.6-33.6L211.2,496z"/>
								</g>
								<g>
									<path fill="#0B364F" d="M228.8,450.8c4.1,10.5,15.5,33,15.5,33c-2.9-0.5-5.5-1.7-5.5-1.7c3.8,7.1,13.3,20.3,13.3,20.3
										c-6.7-0.7-18.3-4.1-18.3-4.1l4.1,7.1c0,0-12.3-4.5-22.8-4.5c-10.5,0-22.8,3.3-22.8,3.3l3.8-5.7c-9.4,1.9-18.1,5.7-18.1,5.7
										c3.8-11.2,11.2-25.7,11.2-25.7l-5.7,2.6c9.1-16.7,12.4-34.8,12.4-34.8l-3.8,1.4c6.7-11.9,10-27.4,10-27.4l-3.3,1.7
										c9.8-17.2,13-32.6,13-32.6c2.8,13.9,13.7,33.5,13.7,33.5c-2.9-0.2-4.8-1-4.8-1s5,17.2,12.5,30.4
										C233.2,452.5,231.9,452.5,228.8,450.8z"/>
								</g>
							</g>
						</g>
					</g>
					<g>
						<g>
							<g>
								<g>
									<path fill="#0B364F" d="M560.5,496.6c0,0,0.5,14.5-2.6,30.6c0,0,7,2.8,11.9,0c0,0-4.4-15.2-5.5-33L560.5,496.6z"/>
								</g>
								<g>
									<path fill="#0B364F" d="M577.8,452.3c4,10.3,15.2,32.4,15.2,32.4c-2.8-0.5-5.4-1.6-5.4-1.6c3.7,7,13.1,19.9,13.1,19.9
										c-6.5-0.7-18-4-18-4l4,7c0,0-12-4.4-22.3-4.4s-22.3,3.3-22.3,3.3l3.7-5.6c-9.2,1.9-17.8,5.6-17.8,5.6
										c3.7-11,11-25.2,11-25.2l-5.6,2.6c8.9-16.4,12.2-34.1,12.2-34.1l-3.7,1.4c6.5-11.7,9.8-26.9,9.8-26.9l-3.3,1.6
										c9.6-16.8,12.7-32,12.7-32c2.7,13.6,13.4,32.9,13.4,32.9c-2.8-0.2-4.7-0.9-4.7-0.9s4.9,16.8,12.3,29.8
										C582.1,453.9,580.8,453.9,577.8,452.3z"/>
								</g>
							</g>
							<g>
								<g>
									<path fill="#0B364F" d="M472.3,499.1c0,0,0.4,13.4-2.4,28.2c0,0,6.5,2.6,11,0c0,0-4.1-14-5.1-30.4L472.3,499.1z"/>
								</g>
								<g>
									<path fill="#0B364F" d="M488.2,458.3c3.7,9.5,14,29.8,14,29.8c-2.6-0.4-5-1.5-5-1.5c3.4,6.5,12.1,18.3,12.1,18.3
										c-6-0.6-16.6-3.7-16.6-3.7l3.7,6.5c0,0-11.1-4.1-20.6-4.1c-9.5,0-20.6,3-20.6,3l3.4-5.2c-8.5,1.7-16.4,5.2-16.4,5.2
										c3.4-10.1,10.1-23.3,10.1-23.3l-5.2,2.4c8.2-15.1,11.2-31.4,11.2-31.4l-3.4,1.3c6-10.8,9-24.8,9-24.8l-3,1.5
										c8.8-15.5,11.7-29.5,11.7-29.5c2.5,12.5,12.4,30.3,12.4,30.3c-2.6-0.2-4.3-0.9-4.3-0.9s4.5,15.5,11.3,27.5
										C492.2,459.8,491,459.8,488.2,458.3z"/>
								</g>
							</g>
							<g>
								<g>
									<path fill="#0B364F" d="M524.7,501.1c0,0,0.4,12.4-2.2,26.3c0,0,6,2.4,10.2,0c0,0-3.8-13.1-4.7-28.3L524.7,501.1z"/>
								</g>
								<g>
									<path fill="#0B364F" d="M539.5,463.1c3.4,8.8,13,27.8,13,27.8c-2.4-0.4-4.6-1.4-4.6-1.4c3.2,6,11.2,17,11.2,17
										c-5.6-0.6-15.4-3.4-15.4-3.4l3.4,6c0,0-10.3-3.8-19.1-3.8c-8.8,0-19.1,2.8-19.1,2.8l3.2-4.8c-7.9,1.6-15.2,4.8-15.2,4.8
										c3.2-9.4,9.4-21.6,9.4-21.6l-4.8,2.2c7.6-14,10.4-29.3,10.4-29.3l-3.2,1.2c5.6-10,8.4-23,8.4-23l-2.8,1.4
										c8.2-14.4,10.9-27.4,10.9-27.4c2.4,11.7,11.5,28.2,11.5,28.2c-2.4-0.2-4-0.8-4-0.8s4.2,14.4,10.5,25.6
										C543.2,464.5,542.1,464.5,539.5,463.1z"/>
								</g>
							</g>
							<g>
								<g>
									<path fill="#0B364F" d="M605.8,504.7c0,0,0.3,10.8-1.9,22.9c0,0,5.2,2.1,8.9,0c0,0-3.3-11.4-4.1-24.6L605.8,504.7z"/>
								</g>
								<g>
									<path fill="#0B364F" d="M618.7,471.6c3,7.7,11.3,24.2,11.3,24.2c-2.1-0.3-4-1.2-4-1.2c2.8,5.2,9.8,14.8,9.8,14.8
										c-4.9-0.5-13.4-3-13.4-3l3,5.2c0,0-9-3.3-16.7-3.3c-7.7,0-16.7,2.4-16.7,2.4l2.8-4.2c-6.9,1.4-13.3,4.2-13.3,4.2
										c2.8-8.2,8.2-18.8,8.2-18.8l-4.2,1.9c6.6-12.2,9.1-25.5,9.1-25.5l-2.8,1c4.9-8.7,7.3-20.1,7.3-20.1l-2.4,1.2
										c7.2-12.6,9.5-23.9,9.5-23.9c2,10.2,10,24.6,10,24.6c-2.1-0.2-3.5-0.7-3.5-0.7s3.7,12.6,9.2,22.2
										C621.9,472.8,620.9,472.8,618.7,471.6z"/>
								</g>
							</g>
							<g>
								<g>
									<path fill="#0B364F" d="M795.2,498.5c0,0,0.4,13.6-2.4,28.8c0,0,6.6,2.6,11.2,0c0,0-4.2-14.3-5.2-31L795.2,498.5z"/>
								</g>
								<g>
									<path fill="#0B364F" d="M811.5,456.9c3.7,9.7,14.3,30.4,14.3,30.4c-2.6-0.4-5.1-1.5-5.1-1.5c3.5,6.6,12.3,18.7,12.3,18.7
										c-6.2-0.7-16.9-3.7-16.9-3.7l3.7,6.6c0,0-11.3-4.2-21-4.2c-9.7,0-21,3.1-21,3.1l3.5-5.3c-8.6,1.7-16.7,5.3-16.7,5.3
										c3.5-10.3,10.3-23.7,10.3-23.7l-5.3,2.4c8.3-15.4,11.4-32.1,11.4-32.1l-3.5,1.3c6.2-11,9.2-25.3,9.2-25.3l-3.1,1.5
										c9-15.8,12-30,12-30c2.6,12.8,12.6,30.9,12.6,30.9c-2.6-0.2-4.4-0.9-4.4-0.9s4.6,15.8,11.5,28
										C815.6,458.4,814.4,458.4,811.5,456.9z"/>
								</g>
							</g>
							<g>
								<g>
									<path fill="#0B364F" d="M445.3,494.9c0,0,0.5,15.3-2.7,32.3c0,0,7.4,3,12.6,0c0,0-4.7-16.1-5.8-34.8L445.3,494.9z"/>
								</g>
								<g>
									<path fill="#0B364F" d="M463.5,448.2c4.2,10.8,16,34.1,16,34.1c-3-0.5-5.7-1.7-5.7-1.7c3.9,7.4,13.8,20.9,13.8,20.9
										c-6.9-0.7-19-4.2-19-4.2l4.2,7.4c0,0-12.7-4.7-23.5-4.7c-10.8,0-23.5,3.4-23.5,3.4l3.9-5.9c-9.7,2-18.7,5.9-18.7,5.9
										c3.9-11.6,11.6-26.6,11.6-26.6l-5.9,2.7c9.4-17.2,12.8-36,12.8-36l-3.9,1.5c6.9-12.3,10.3-28.3,10.3-28.3l-3.4,1.7
										c10.1-17.7,13.4-33.7,13.4-33.7c2.9,14.3,14.2,34.7,14.2,34.7c-3-0.2-4.9-1-4.9-1s5.2,17.7,12.9,31.4
										C468,449.9,466.7,449.9,463.5,448.2z"/>
								</g>
							</g>
							<g>
								<g>
									<path fill="#0B364F" d="M746.5,496.6c0,0,0.5,14.5-2.6,30.6c0,0,7,2.8,11.9,0c0,0-4.4-15.2-5.5-33L746.5,496.6z"/>
								</g>
								<g>
									<path fill="#0B364F" d="M763.8,452.3c4,10.3,15.2,32.4,15.2,32.4c-2.8-0.5-5.4-1.6-5.4-1.6c3.7,7,13.1,19.9,13.1,19.9
										c-6.5-0.7-18-4-18-4l4,7c0,0-12-4.4-22.3-4.4s-22.3,3.3-22.3,3.3l3.7-5.6c-9.2,1.9-17.8,5.6-17.8,5.6
										c3.7-11,11-25.2,11-25.2l-5.6,2.6c8.9-16.4,12.2-34.1,12.2-34.1l-3.7,1.4c6.5-11.7,9.8-26.9,9.8-26.9l-3.3,1.6
										c9.6-16.8,12.7-32,12.7-32c2.7,13.6,13.4,32.9,13.4,32.9c-2.8-0.2-4.7-0.9-4.7-0.9s4.9,16.8,12.3,29.8
										C768.1,453.9,766.8,453.9,763.8,452.3z"/>
								</g>
							</g>
							<g>
								<g>
									<path fill="#0B364F" d="M687.4,501.4c0,0,0.4,12.3-2.2,26c0,0,5.9,2.4,10.1,0c0,0-3.8-12.9-4.7-28L687.4,501.4z"/>
								</g>
								<g>
									<path fill="#0B364F" d="M702.1,463.8c3.4,8.7,12.9,27.5,12.9,27.5c-2.4-0.4-4.6-1.4-4.6-1.4c3.2,5.9,11.1,16.9,11.1,16.9
										c-5.6-0.6-15.3-3.4-15.3-3.4l3.4,5.9c0,0-10.2-3.8-18.9-3.8c-8.7,0-18.9,2.8-18.9,2.8l3.2-4.8c-7.8,1.6-15.1,4.8-15.1,4.8
										c3.2-9.3,9.3-21.4,9.3-21.4l-4.8,2.2c7.5-13.9,10.3-29,10.3-29l-3.2,1.2c5.6-9.9,8.3-22.8,8.3-22.8l-2.8,1.4
										c8.1-14.3,10.8-27.1,10.8-27.1c2.3,11.6,11.4,27.9,11.4,27.9c-2.4-0.2-4-0.8-4-0.8s4.2,14.3,10.4,25.3
										C705.7,465.2,704.6,465.2,702.1,463.8z"/>
								</g>
							</g>
							<g>
								<g>
									<path fill="#0B364F" d="M816.9,501.4c0,0,0.4,12.3-2.2,26c0,0,5.9,2.4,10.1,0c0,0-3.8-12.9-4.7-28L816.9,501.4z"/>
								</g>
								<g>
									<path fill="#0B364F" d="M831.6,463.8c3.4,8.7,12.9,27.5,12.9,27.5c-2.4-0.4-4.6-1.4-4.6-1.4c3.2,5.9,11.1,16.9,11.1,16.9
										c-5.6-0.6-15.3-3.4-15.3-3.4l3.4,5.9c0,0-10.2-3.8-18.9-3.8s-18.9,2.8-18.9,2.8l3.2-4.8c-7.8,1.6-15.1,4.8-15.1,4.8
										c3.2-9.3,9.3-21.4,9.3-21.4l-4.8,2.2c7.5-13.9,10.3-29,10.3-29l-3.2,1.2c5.6-9.9,8.3-22.8,8.3-22.8l-2.8,1.4
										c8.1-14.3,10.8-27.1,10.8-27.1c2.3,11.6,11.4,27.9,11.4,27.9c-2.4-0.2-4-0.8-4-0.8s4.2,14.3,10.4,25.3
										C835.3,465.2,834.2,465.2,831.6,463.8z"/>
								</g>
							</g>
							<g>
								<g>
									<path fill="#0B364F" d="M729.4,494.9c0,0,0.5,15.3-2.7,32.3c0,0,7.4,3,12.6,0c0,0-4.7-16.1-5.8-34.8L729.4,494.9z"/>
								</g>
								<g>
									<path fill="#0B364F" d="M747.6,448.2c4.2,10.8,16,34.1,16,34.1c-3-0.5-5.7-1.7-5.7-1.7c3.9,7.4,13.8,20.9,13.8,20.9
										c-6.9-0.7-19-4.2-19-4.2l4.2,7.4c0,0-12.7-4.7-23.5-4.7c-10.8,0-23.5,3.4-23.5,3.4l3.9-5.9c-9.7,2-18.7,5.9-18.7,5.9
										c3.9-11.6,11.6-26.6,11.6-26.6l-5.9,2.7c9.4-17.2,12.8-36,12.8-36l-3.9,1.5c6.9-12.3,10.3-28.3,10.3-28.3l-3.4,1.7
										c10.1-17.7,13.4-33.7,13.4-33.7c2.9,14.3,14.2,34.7,14.2,34.7c-3-0.2-4.9-1-4.9-1s5.2,17.7,12.9,31.4
										C752.2,449.9,750.8,449.9,747.6,448.2z"/>
								</g>
							</g>
							<g>
								<g>
									<path fill="#0B364F" d="M631.4,496c0,0,0.5,14.8-2.6,31.2c0,0,7.1,2.9,12.2,0c0,0-4.5-15.5-5.6-33.6L631.4,496z"/>
								</g>
								<g>
									<path fill="#0B364F" d="M649,450.8c4.1,10.5,15.5,33,15.5,33c-2.9-0.5-5.5-1.7-5.5-1.7c3.8,7.1,13.3,20.3,13.3,20.3
										c-6.7-0.7-18.3-4.1-18.3-4.1l4.1,7.1c0,0-12.3-4.5-22.8-4.5s-22.8,3.3-22.8,3.3l3.8-5.7c-9.4,1.9-18.1,5.7-18.1,5.7
										c3.8-11.2,11.2-25.7,11.2-25.7l-5.7,2.6c9.1-16.7,12.4-34.8,12.4-34.8l-3.8,1.4c6.7-11.9,10-27.4,10-27.4l-3.3,1.7
										c9.8-17.2,13-32.6,13-32.6c2.8,13.9,13.7,33.5,13.7,33.5c-2.9-0.2-4.8-1-4.8-1s5,17.2,12.5,30.4
										C653.4,452.5,652.1,452.5,649,450.8z"/>
								</g>
							</g>
						</g>
					</g>
				</g>
			</g>
		</g>
		<g clip-path="url(#SVGID_8_)">
			<g>
				<path fill="#FFFFFF" d="M689.9,142.5c3.1,0,3.1-4.8,0-4.8C686.8,137.7,686.8,142.5,689.9,142.5L689.9,142.5z"/>
			</g>
			<g>
				<path fill="#FFFFFF" d="M131.8,122.3c3.1,0,3.1-4.8,0-4.8C128.7,117.4,128.7,122.3,131.8,122.3L131.8,122.3z"/>
			</g>
			<g>
				<path fill="#FFFFFF" d="M363.1,47.1c3.1,0,3.1-4.8,0-4.8S360,47.1,363.1,47.1L363.1,47.1z"/>
			</g>
			<g>
				<path fill="#FFFFFF" d="M799.8,138.2c3.1,0,3.1-4.8,0-4.8C796.7,133.4,796.7,138.2,799.8,138.2L799.8,138.2z"/>
			</g>
			<g>
				<path fill="#FFFFFF" d="M513.5,206.1c3.1,0,3.1-4.8,0-4.8S510.4,206.1,513.5,206.1L513.5,206.1z"/>
			</g>
			<g>
				<path fill="#FFFFFF" d="M347.2,138.2c3.1,0,3.1-4.8,0-4.8C344.1,133.4,344.1,138.2,347.2,138.2L347.2,138.2z"/>
			</g>
			<g>
				<path fill="#FFFFFF" d="M42.1,198.9c3.1,0,3.1-4.8,0-4.8C39,194.1,39,198.9,42.1,198.9L42.1,198.9z"/>
			</g>
			<g>
				<path fill="#FFFFFF" d="M552.5,128.1c3.1,0,3.1-4.8,0-4.8C549.4,123.2,549.4,128.1,552.5,128.1L552.5,128.1z"/>
			</g>
			<g>
				<path fill="#FFFFFF" d="M568.4,118.4c5.6,0,5.6-8.7,0-8.7C562.8,109.7,562.8,118.4,568.4,118.4L568.4,118.4z"/>
			</g>
			<g>
				<path fill="#FFFFFF" d="M205.5,73.6c5.6,0,5.6-8.7,0-8.7S199.9,73.6,205.5,73.6L205.5,73.6z"/>
			</g>
			<g>
				<path fill="#FFFFFF" d="M58,121.3c5.6,0,5.6-8.7,0-8.7S52.4,121.3,58,121.3L58,121.3z"/>
			</g>
			<g>
				<path fill="#FFFFFF" d="M717.4,163.2c5.6,0,5.6-8.7,0-8.7S711.8,163.2,717.4,163.2L717.4,163.2z"/>
			</g>
			<g>
				<path fill="#FFFFFF" d="M355.9,166.1c5.6,0,5.6-8.7,0-8.7C350.3,157.5,350.3,166.1,355.9,166.1L355.9,166.1z"/>
			</g>
			<g>
				<path fill="#FFFFFF" d="M312.5,18.6c5.6,0,5.6-8.7,0-8.7C306.9,10,306.9,18.6,312.5,18.6L312.5,18.6z"/>
			</g>
			<g>
				<path fill="#FFFFFF" d="M474.4,34.5c5.6,0,5.6-8.7,0-8.7C468.8,25.9,468.8,34.5,474.4,34.5L474.4,34.5z"/>
			</g>
			<g>
				<path fill="#FFFFFF" d="M747.7,85.2c5.6,0,5.6-8.7,0-8.7C742.1,76.5,742.1,85.2,747.7,85.2L747.7,85.2z"/>
			</g>
			<g>
				<path fill="#FFFFFF" d="M179.5,173.4c5.6,0,5.6-8.7,0-8.7C173.9,164.7,173.9,173.4,179.5,173.4L179.5,173.4z"/>
			</g>
		</g>
	</g>
	<path fill="#0C405D" d="M0,595.3v-99.6c0,0,428.2-20.8,841.9,0v99.6H0z"/>
	<g>
		<g>
			<g>
				<polygon fill="#1867A5" points="819.5,538.7 826.6,500.4 817.4,498.6 816.5,538.7 				"/>
				<path fill="#051919" d="M778.5,495.9c0,0,18.4,12.8,48.2,16.4v1.9c0,0-32.7-0.9-48.4-16.9L778.5,495.9z"/>
			</g>
			<g>
				<path fill="#1867A5" d="M522.8,374.6l-8-1.8c0,0-21.3,67-99,119.5l7.1,3.6C422.9,495.9,502.3,470,522.8,374.6z"/>
				<path fill="#0D4E80" d="M522.8,374.6c0,0-20.5,70.5-99.9,121.3l8.9,42.8h194.5l14.3-42.8C640.5,495.9,544.2,462,522.8,374.6z"/>
				<polygon fill="#051919" points="522.8,374.6 522.8,538.7 479.1,538.7 				"/>
				<path fill="#1C75BC" d="M522.8,374.6c0,0-12.5,114.2-43.7,164.1l-33.9-23.2C445.2,515.5,494.2,483.4,522.8,374.6z"/>
				<path fill="#1C75BC" d="M703,379c-105.3,7.1-188.2-6.2-188.2-6.2c21.4,87.4,125.8,123.1,125.8,123.1l-14.3,42.8h139.2l16.1-42.8
					C717.2,449.5,703,379,703,379z"/>
				<path fill="#1867A5" d="M640.5,495.9c0,0,86.5,14.3,140.9,0l-16.1,42.8H626.3L640.5,495.9z"/>
			</g>
			<g>
				<polygon fill="#1867A5" points="381.9,538.7 374.7,500.4 383.9,498.6 384.8,538.7 				"/>
				<path fill="#051919" d="M422.9,495.9c0,0-18.4,12.8-48.2,16.4v1.9c0,0,32.7-0.9,48.4-16.9L422.9,495.9z"/>
			</g>
			<g>
				<polygon fill="#0D4E80" points="681.8,538.7 689,500.4 679.8,498.6 678.9,538.7 				"/>
				<path fill="#051919" d="M640.8,495.9c0,0,18.4,12.8,48.2,16.4v1.9c0,0-32.7-0.9-48.4-16.9L640.8,495.9z"/>
			</g>
		</g>
		<g>
			<g>
				<polygon fill="#1867A5" points="394.4,498.5 399.5,470.9 392.9,469.6 392.3,498.5 				"/>
				<path fill="#051919" d="M364.9,467.7c0,0,13.3,9.2,34.6,11.8v1.4c0,0-23.5-0.6-34.8-12.2L364.9,467.7z"/>
			</g>
			<g>
				<path fill="#1867A5" d="M181.1,380.5l-5.8-1.3c0,0-15.3,48.1-71.2,85.9l5.1,2.6C109.3,467.7,166.4,449.1,181.1,380.5z"/>
				<path fill="#0D4E80" d="M181.1,380.5c0,0-14.7,50.7-71.8,87.2l6.4,30.8h139.8l10.3-30.8C265.7,467.7,196.5,443.3,181.1,380.5z"
					/>
				<polygon fill="#051919" points="181.1,380.5 181.1,498.5 149.7,498.5 				"/>
				<path fill="#1C75BC" d="M181.1,380.5c0,0-9,82.1-31.4,118l-24.4-16.7C125.3,481.8,160.6,458.7,181.1,380.5z"/>
				<path fill="#1C75BC" d="M310.6,383.7c-75.7,5.1-135.3-4.5-135.3-4.5c15.4,62.8,90.4,88.5,90.4,88.5l-10.3,30.8h100l11.5-30.8
					C320.9,434.4,310.6,383.7,310.6,383.7z"/>
				<path fill="#1867A5" d="M265.7,467.7c0,0,62.2,10.3,101.3,0l-11.5,30.8h-100L265.7,467.7z"/>
			</g>
			<g>
				<polygon fill="#1867A5" points="79.8,498.5 74.7,470.9 81.3,469.6 81.9,498.5 				"/>
				<path fill="#051919" d="M109.3,467.7c0,0-13.3,9.2-34.6,11.8v1.4c0,0,23.5-0.6,34.8-12.2L109.3,467.7z"/>
			</g>
			<g>
				<polygon fill="#1C75BC" points="295.4,498.5 300.6,470.9 293.9,469.6 293.3,498.5 				"/>
				<path fill="#051919" d="M265.9,467.7c0,0,13.3,9.2,34.6,11.8v1.4c0,0-23.5-0.6-34.8-12.2L265.9,467.7z"/>
			</g>
		</g>
	</g>
</g>
</svg>
